<?xml version="1.0" encoding="UTF-8" standalone="no"?>
<svg
   xmlns:dc="http://purl.org/dc/elements/1.1/"
   xmlns:cc="http://creativecommons.org/ns#"
   xmlns:rdf="http://www.w3.org/1999/02/22-rdf-syntax-ns#"
   xmlns:svg="http://www.w3.org/2000/svg"
   xmlns="http://www.w3.org/2000/svg"
   xmlns:sodipodi="http://sodipodi.sourceforge.net/DTD/sodipodi-0.dtd"
   xmlns:inkscape="http://www.inkscape.org/namespaces/inkscape"
   version="1.1"
   x="0px"
   y="0px"
   width="256"
   height="256"
   viewBox="0 0 256 256"
   enable-background="new 0 0 86 86"
   xml:space="preserve"
   id="svg17"
   sodipodi:docname="category-safety.svg"
   inkscape:version="1.0.1 (3bc2e813f5, 2020-09-07)"><metadata
   id="metadata23"><rdf:RDF><cc:Work
       rdf:about=""><dc:format>image/svg+xml</dc:format><dc:type
         rdf:resource="http://purl.org/dc/dcmitype/StillImage" /><dc:title /></cc:Work></rdf:RDF></metadata><defs
   id="defs21">
	<linearGradient
   id="SVGID_1_"
   gradientUnits="userSpaceOnUse"
   x1="12.8064"
   y1="73.193703"
   x2="73.193398"
   y2="12.8067">
		<stop
   offset="0"
   style="stop-color:#ffd600;stop-opacity:1"
   id="stop3" />
		<stop
   offset="1"
   style="stop-color:#ffff00;stop-opacity:1"
   id="stop5" />
	</linearGradient>
	
	
	
</defs><sodipodi:namedview
   pagecolor="#ffffff"
   bordercolor="#666666"
   borderopacity="1"
   objecttolerance="10"
   gridtolerance="10"
   guidetolerance="10"
   inkscape:pageopacity="0"
   inkscape:pageshadow="2"
   inkscape:window-width="1920"
   inkscape:window-height="1015"
   id="namedview19"
   showgrid="true"
   inkscape:zoom="2.0784884"
   inkscape:cx="-19.610001"
   inkscape:cy="130.14903"
   inkscape:window-x="0"
   inkscape:window-y="0"
   inkscape:window-maximized="1"
   inkscape:current-layer="svg17"
   inkscape:document-rotation="0"><inkscape:grid
     type="xygrid"
     id="grid849" /></sodipodi:namedview>
<g
   id="Layer_2"
   display="none">
</g>

<path
   style="opacity:1;stroke-width:3.77953;fill:#ffffff"
   d="m 128.36222,247.99483 c -0.88266,0.024 -1.73538,-0.28081 -2.3464,-0.83672 -8.81661,-8.02664 -17.77734,-17.03281 -25.8758,-25.60523 -0.006,-0.012 -0.0187,-0.024 -0.0312,-0.03 C 80.152291,199.80923 64.98349,177.49863 53.990669,153.61053 43.750442,131.35795 37.763332,112.10748 32.314177,84.065352 c -1.193299,-6.14073 -2.399099,-13.58176 -3.231007,-19.56943 -0.415642,-2.99384 -0.738844,-5.6204 -0.921785,-7.56295 -0.09125,-0.97131 -0.145012,-1.76813 -0.158137,-2.41266 -0.0062,-0.32221 -0.0062,-0.59102 0.025,-0.92613 0.01875,-0.1674 0.0375,-0.3462 0.130637,-0.64987 0.09563,-0.30361 0.01875,-0.91977 1.415303,-1.67338 0.75422,-0.40681 0.855721,-0.32641 1.042859,-0.36541 0.186878,-0.036 0.33188,-0.0678 0.484393,-0.0882 0.30439,-0.042 0.627332,-0.0702 0.996286,-0.1044 0.737844,-0.0678 1.651441,-0.1338 2.616424,-0.1794 7.651615,-0.36541 18.935003,-2.06165 26.415876,-3.9724 5.050388,-1.28992 8.375459,-2.35698 13.305658,-4.26479 1.139048,-0.44101 2.183585,-0.84386 2.96093,-1.13733 0.388766,-0.1452 0.707844,-0.26101 0.949785,-0.34921 0.113762,-0.042 0.215014,-0.0726 0.307515,-0.1044 0.0062,-0.002 0.0125,-0.006 0.01875,-0.006 0.001,-5.4e-4 0.0062,7.8e-4 0.0062,0 0.0031,-0.001 0.0063,-0.006 0.0063,-0.006 0.0375,-0.018 0.07063,-0.03 0.130627,-0.054 -0.0031,0.006 -0.01875,0.018 -0.025,0.024 0.01875,-0.006 0.025,-0.012 0.04375,-0.018 0.0375,-0.012 0.08188,-0.03 0.176888,-0.054 0.0375,-0.012 0.06625,-0.03 0.111877,-0.048 -0.025,0.004 -0.105002,0.003 -0.121252,0.006 0.218753,-0.10201 0.478142,-0.22981 0.82872,-0.39841 0.834534,-0.40021 1.981145,-0.95493 3.231007,-1.5679 12.073796,-5.91999 21.103219,-12.02479 35.522179,-24.07801 1.89969,-1.58794 3.66989,-3.02858 5.00938,-4.09427 0.66977,-0.53281 1.22605,-0.9713 1.66669,-1.29969 0.22063,-0.1632 0.40627,-0.29821 0.60502,-0.43021 0.0994,-0.066 0.19564,-0.1338 0.36314,-0.2274 0.0838,-0.048 0.18689,-0.0996 0.37252,-0.17941 0.18564,-0.0768 0.37064,-0.2316 1.22911,-0.26821 1.02861,-0.042 1.24212,0.15181 1.45257,0.23521 0.21062,0.0816 0.31875,0.1386 0.41001,0.186 0.18251,0.0972 0.28501,0.16561 0.39127,0.23521 0.2125,0.138 0.40439,0.28021 0.64246,0.45481 0.47626,0.34981 1.08511,0.82364 1.8157,1.39744 1.46093,1.14609 3.39389,2.70463 5.47478,4.42613 11.92761,9.86761 17.70134,14.03879 26.00617,18.84647 18.1363,10.49907 34.29763,15.15927 59.10744,16.98619 l 2.01121,0.14521 c 1.61675,0.1176 2.85999,1.29771 2.85855,2.71321 v 1.03112 c 0,2.15082 -0.5869,6.59309 -1.37793,12.09583 -0.79159,5.50274 -1.80389,11.76599 -2.71898,16.52315 -5.44272,28.293478 -11.63059,48.221418 -22.00239,70.754808 -9.3435,20.29947 -22.7201,40.80493 -38.70662,59.3664 -0.0375,0.042 -0.0731,0.0822 -0.11187,0.1218 -10.76082,11.11228 -21.16968,22.77639 -32.52407,33.58969 -0.56815,0.54301 -1.36418,0.86264 -2.20672,0.88544 z"
   id="path2" /></svg>
