<?xml version="1.0" encoding="UTF-8" standalone="no"?>
<svg
   xmlns:dc="http://purl.org/dc/elements/1.1/"
   xmlns:cc="http://creativecommons.org/ns#"
   xmlns:rdf="http://www.w3.org/1999/02/22-rdf-syntax-ns#"
   xmlns:svg="http://www.w3.org/2000/svg"
   xmlns="http://www.w3.org/2000/svg"
   xmlns:sodipodi="http://sodipodi.sourceforge.net/DTD/sodipodi-0.dtd"
   xmlns:inkscape="http://www.inkscape.org/namespaces/inkscape"
   version="1.1"
   x="0px"
   y="0px"
   width="256"
   height="256"
   viewBox="0 0 256 256"
   enable-background="new 0 0 86 86"
   xml:space="preserve"
   id="svg17"
   sodipodi:docname="category-info.svg"
   inkscape:version="1.0.1 (3bc2e813f5, 2020-09-07)"><metadata
   id="metadata23"><rdf:RDF><cc:Work
       rdf:about=""><dc:format>image/svg+xml</dc:format><dc:type
         rdf:resource="http://purl.org/dc/dcmitype/StillImage" /><dc:title></dc:title></cc:Work></rdf:RDF></metadata><defs
   id="defs21">
	<linearGradient
   id="SVGID_1_"
   gradientUnits="userSpaceOnUse"
   x1="12.8064"
   y1="73.193703"
   x2="73.193398"
   y2="12.8067">
		<stop
   offset="0"
   style="stop-color:#ffd600;stop-opacity:1"
   id="stop3" />
		<stop
   offset="1"
   style="stop-color:#ffff00;stop-opacity:1"
   id="stop5" />
	</linearGradient>
	
	
	
</defs><sodipodi:namedview
   pagecolor="#ffffff"
   bordercolor="#666666"
   borderopacity="1"
   objecttolerance="10"
   gridtolerance="10"
   guidetolerance="10"
   inkscape:pageopacity="0"
   inkscape:pageshadow="2"
   inkscape:window-width="1920"
   inkscape:window-height="1015"
   id="namedview19"
   showgrid="true"
   inkscape:zoom="2.0784884"
   inkscape:cx="138.84374"
   inkscape:cy="187.38223"
   inkscape:window-x="0"
   inkscape:window-y="0"
   inkscape:window-maximized="1"
   inkscape:current-layer="svg17"
   inkscape:document-rotation="0"><inkscape:grid
     type="xygrid"
     id="grid849" /></sodipodi:namedview>
<g
   id="Layer_2"
   display="none">
</g>

<path
   style="fill:#ffffff;stroke-width:0.999999"
   d="M 128,8.000005 C 61.65714,8.000005 8,61.657145 8,128.00001 8,194.34285 61.65714,248 128,248 194.34285,248 248,194.34285 248,128.00001 248,61.657145 194.34285,8.000005 128,8.000005 Z m -17.14286,51.42857 h 34.28571 v 51.428575 l -4.28571,34.28571 h -25.2 l -4.8,-34.28571 z M 128,158.00001 c 11.82857,0 21.42857,9.6 21.42857,21.42857 0,11.82857 -9.6,21.42856 -21.42857,21.42856 -11.82858,0 -21.42858,-9.6 -21.42858,-21.42856 0,-11.82858 9.6,-21.42857 21.42858,-21.42857 z"
   id="path2" /></svg>
