<?xml version="1.0" encoding="UTF-8" standalone="no"?>
<svg
   xmlns:dc="http://purl.org/dc/elements/1.1/"
   xmlns:cc="http://creativecommons.org/ns#"
   xmlns:rdf="http://www.w3.org/1999/02/22-rdf-syntax-ns#"
   xmlns:svg="http://www.w3.org/2000/svg"
   xmlns="http://www.w3.org/2000/svg"
   xmlns:sodipodi="http://sodipodi.sourceforge.net/DTD/sodipodi-0.dtd"
   xmlns:inkscape="http://www.inkscape.org/namespaces/inkscape"
   version="1.1"
   x="0px"
   y="0px"
   width="256"
   height="256"
   viewBox="0 0 256 256"
   enable-background="new 0 0 86 86"
   xml:space="preserve"
   id="svg17"
   sodipodi:docname="category-health-minor.svg"
   inkscape:version="1.0.1 (3bc2e813f5, 2020-09-07)"><metadata
   id="metadata23"><rdf:RDF><cc:Work
       rdf:about=""><dc:format>image/svg+xml</dc:format><dc:type
         rdf:resource="http://purl.org/dc/dcmitype/StillImage" /><dc:title></dc:title></cc:Work></rdf:RDF></metadata><defs
   id="defs21">
	<linearGradient
   id="SVGID_1_"
   gradientUnits="userSpaceOnUse"
   x1="12.8064"
   y1="73.193703"
   x2="73.193398"
   y2="12.8067">
		<stop
   offset="0"
   style="stop-color:#ffd600;stop-opacity:1"
   id="stop3" />
		<stop
   offset="1"
   style="stop-color:#ffff00;stop-opacity:1"
   id="stop5" />
	</linearGradient>
	
	
	
</defs><sodipodi:namedview
   pagecolor="#ffffff"
   bordercolor="#666666"
   borderopacity="1"
   objecttolerance="10"
   gridtolerance="10"
   guidetolerance="10"
   inkscape:pageopacity="0"
   inkscape:pageshadow="2"
   inkscape:window-width="1920"
   inkscape:window-height="1015"
   id="namedview19"
   showgrid="true"
   inkscape:zoom="2.0784884"
   inkscape:cx="138.84374"
   inkscape:cy="187.38223"
   inkscape:window-x="0"
   inkscape:window-y="0"
   inkscape:window-maximized="1"
   inkscape:current-layer="svg17"
   inkscape:document-rotation="0"><inkscape:grid
     type="xygrid"
     id="grid849" /></sodipodi:namedview>
<g
   id="Layer_2"
   display="none">
</g>

<path
   id="path2"
   style="fill:#ffea00;stroke-width:0.999997"
   d="M 72.80078,25.14258 C 37.14363,25.14258 8,53.77058 8,89.42773 8,100.05763 10.61087,110.11677 15.19336,119 H 70.9375 L 89.42969,72.77148 a 6.0006,6.0006 0 0 1 5.4414,-3.76953 6.0006,6.0006 0 0 1 5.98633,4.69727 l 15.78711,71.03711 12.78516,-31.96485 a 6.0006,6.0006 0 0 1 10.5625,-1.0996 l 3.42187,5.13281 15.94727,-43.85547 a 6.0006,6.0006 0 0 1 11.38476,0.32617 L 184.46484,119 h 56.3418 C 245.38913,110.11677 248,100.05763 248,89.42773 248,53.77058 218.85637,25.14258 183.19922,25.14258 159.71351,25.14258 139.31429,37.48616 128,56.17187 116.68571,37.48616 96.28649,25.14258 72.80078,25.14258 Z m 91.65234,68.91601 -13.81445,37.99219 a 6.0006,6.0006 0 0 1 -10.63086,1.27734 l -3.67383,-5.50976 -15.76367,39.41016 a 6.0006,6.0006 0 0 1 -11.42773,-0.92774 L 93.35547,95.26367 80.57031,127.22852 A 6.0006,6.0006 0 0 1 75,131 H 23.17969 c 1.63652,1.95441 3.37155,3.82444 5.2207,5.57227 l 98.05664,94.28515 101.14258,-94.28515 c 1.84915,-1.74783 3.58418,-3.61786 5.2207,-5.57227 H 180 a 6.0006,6.0006 0 0 1 -5.74609,-4.27539 z" /></svg>
