<?xml version="1.0" encoding="UTF-8"?>
<!-- Generator: Adobe Illustrator 17.0.1, SVG Export Plug-In . SVG Version: 6.00 Build 0)  -->
<svg id="Layer_1" width="512" height="512" version="1.1" viewBox="0 0 512 512" xml:space="preserve" xmlns="http://www.w3.org/2000/svg">

<g id="g1133" transform="matrix(5.3952 0 0 5.3952 -1924.3 -1369.1)" fill="#fff" stroke-width=".18535"><path id="path860" d="m404.13 333.21c-2.173 0-4.211-0.841-5.739-2.367l-34.908-34.908c-3.015-3.016-3.152-7.891-0.313-11.1l0.087-0.087c11.32-10 25.835-15.508 40.871-15.508 15.032 0 29.544 5.501 40.862 15.491l0.085 0.085c2.847 3.2 2.723 8.076-0.283 11.1l-34.925 34.93c-1.528 1.525-3.565 2.364-5.737 2.364zm-39.502-47.005c-2.1 2.419-1.986 6.061 0.269 8.316l34.908 34.908c1.149 1.148 2.686 1.781 4.325 1.781s3.174-0.632 4.322-1.779l34.923-34.928c2.246-2.26 2.35-5.902 0.243-8.315-10.945-9.641-24.967-14.949-39.491-14.949-14.526 1e-3 -28.552 5.315-39.499 14.966z"/><g id="g868" transform="translate(355.92 252.1)">
		<path id="path862" d="m80.769 50.061c-8.46-9.278-20.468-14.6-32.944-14.6s-24.479 5.321-32.934 14.6l-1.479-1.347c8.832-9.693 21.375-15.252 34.412-15.252 13.038 0 25.584 5.559 34.423 15.252z" opacity=".6"/>
		<path id="path864" d="m70.801 60.095c-6.134-6.139-14.292-9.52-22.973-9.52-8.678 0-16.837 3.38-22.975 9.517l-1.414-1.414c6.515-6.515 15.176-10.103 24.389-10.103 9.215 0 17.876 3.589 24.387 10.105z" opacity=".6"/>
		<path id="path866" d="m35.36 70.596-1.414-1.414c3.71-3.709 8.64-5.752 13.882-5.752 5.244 0 10.175 2.043 13.883 5.752l-1.414 1.414c-3.33-3.331-7.759-5.166-12.469-5.166-4.707 0-9.135 1.835-12.468 5.166z" opacity=".6"/>
	</g></g><g id="g1536" transform="matrix(4.3635 0 0 4.3635 299.93 240.49)" fill="#fff" stroke-width=".22917">
		<path id="path1532" d="m42.099 43.101c-0.256 0-0.512-0.098-0.707-0.293l-7.877-7.878c-0.753-0.753-1.168-1.758-1.168-2.829s0.415-2.075 1.168-2.828l7.879-7.879c0.391-0.391 1.023-0.391 1.414 0s0.391 1.023 0 1.414l-7.879 7.879c-0.376 0.375-0.582 0.877-0.582 1.414s0.207 1.039 0.582 1.415l7.877 7.878c0.391 0.391 0.391 1.023 0 1.414-0.196 0.195-0.452 0.293-0.707 0.293z"/>
		<path id="path1534" d="m22.101 43.101c-0.256 0-0.512-0.098-0.707-0.293-0.391-0.391-0.391-1.023 0-1.414l7.878-7.878c0.779-0.78 0.779-2.049 0-2.829l-7.878-7.878c-0.391-0.391-0.391-1.023 0-1.414s1.023-0.391 1.414 0l7.878 7.878c1.559 1.56 1.559 4.098 0 5.657l-7.878 7.878c-0.195 0.195-0.451 0.293-0.707 0.293z"/>
	</g></svg>
