<?xml version="1.0" encoding="UTF-8"?>
<svg id="svg56" width="256" height="256" enable-background="new 0 0 86 86" version="1.1" viewBox="0 0 256 256" xml:space="preserve" xmlns="http://www.w3.org/2000/svg" xmlns:cc="http://creativecommons.org/ns#" xmlns:dc="http://purl.org/dc/elements/1.1/" xmlns:rdf="http://www.w3.org/1999/02/22-rdf-syntax-ns#"><metadata id="metadata62"><rdf:RDF><cc:Work rdf:about=""><dc:format>image/svg+xml</dc:format><dc:type rdf:resource="http://purl.org/dc/dcmitype/StillImage"/></cc:Work></rdf:RDF></metadata>


<g id="g839" transform="translate(0,-56.096)" fill="#fff"><path id="path873-3" d="m145.99 184a17.986 17.986 0 0 1-17.986 17.986 17.986 17.986 0 0 1-17.986-17.986 17.986 17.986 0 0 1 17.986-17.986 17.986 17.986 0 0 1 17.986 17.986z" stroke-linecap="round" stroke-linejoin="round" stroke-width="8"/><path id="path875-6" d="m157.98 184c0 10.762-5.6677 20.579-14.988 25.96l32.974 57.114c29.634-17.109 47.963-48.856 47.963-83.074z" color="#000000" color-rendering="auto" dominant-baseline="auto" enable-background="accumulate" image-rendering="auto" shape-rendering="auto" solid-color="#000000" stop-color="#000000" style="font-feature-settings:normal;font-variant-alternates:normal;font-variant-caps:normal;font-variant-east-asian:normal;font-variant-ligatures:normal;font-variant-numeric:normal;font-variant-position:normal;font-variation-settings:normal;inline-size:0;isolation:auto;mix-blend-mode:normal;shape-margin:0;shape-padding:0;text-decoration-color:#000000;text-decoration-line:none;text-decoration-style:solid;text-indent:0;text-orientation:mixed;text-transform:none;white-space:normal"/><path id="path881-7" d="m32.077 184c-3e-5 34.218 18.329 65.965 47.963 83.074l32.974-57.114c-9.3206-5.3812-14.988-15.198-14.988-25.96z" color="#000000" color-rendering="auto" dominant-baseline="auto" enable-background="accumulate" image-rendering="auto" shape-rendering="auto" solid-color="#000000" stop-color="#000000" style="font-feature-settings:normal;font-variant-alternates:normal;font-variant-caps:normal;font-variant-east-asian:normal;font-variant-ligatures:normal;font-variant-numeric:normal;font-variant-position:normal;font-variation-settings:normal;inline-size:0;isolation:auto;mix-blend-mode:normal;shape-margin:0;shape-padding:0;text-decoration-color:#000000;text-decoration-line:none;text-decoration-style:solid;text-indent:0;text-orientation:mixed;text-transform:none;white-space:normal"/><path id="path883-5" d="m128 88.096c-16.573 0-33.146 4.2734-47.963 12.828l32.974 57.114c9.3206-5.3812 20.656-5.3812 29.977 0l32.974-57.114c-14.817-8.5545-31.39-12.828-47.963-12.828z" color="#000000" color-rendering="auto" dominant-baseline="auto" enable-background="accumulate" image-rendering="auto" shape-rendering="auto" solid-color="#000000" stop-color="#000000" style="font-feature-settings:normal;font-variant-alternates:normal;font-variant-caps:normal;font-variant-east-asian:normal;font-variant-ligatures:normal;font-variant-numeric:normal;font-variant-position:normal;font-variation-settings:normal;inline-size:0;isolation:auto;mix-blend-mode:normal;shape-margin:0;shape-padding:0;text-decoration-color:#000000;text-decoration-line:none;text-decoration-style:solid;text-indent:0;text-orientation:mixed;text-transform:none;white-space:normal"/></g></svg>
